<svg width="40" height="40" viewBox="0 0 40 40" fill="none" xmlns="http://www.w3.org/2000/svg">
<path fill-rule="evenodd" clip-rule="evenodd" d="M21.5184 5.13253C23.8839 2.0151 27.172 2 27.172 2C27.172 2 27.6609 4.93105 25.3111 7.75468C22.8022 10.7693 19.9501 10.2764 19.9501 10.2764C19.9501 10.2764 19.4148 7.90507 21.5184 5.13253Z" fill="#2F3A51"/>
<path fill-rule="evenodd" clip-rule="evenodd" d="M20.2515 12.3296C21.4685 12.3296 23.7266 10.6567 26.6663 10.6567C31.7266 10.6567 33.717 14.2573 33.717 14.2573C33.717 14.2573 29.8238 16.2477 29.8238 21.078C29.8238 26.5267 34.6739 28.4045 34.6739 28.4045C34.6739 28.4045 31.2836 37.9472 26.7041 37.9472C24.601 37.9472 22.9654 36.5299 20.7497 36.5299C18.4916 36.5299 16.2503 38 14.7906 38C10.6089 38 5.32623 28.9479 5.32623 21.672C5.32623 14.5133 9.79771 10.7578 13.9922 10.7578C16.7177 10.7572 18.8336 12.3296 20.2515 12.3296Z" fill="#2F3A51"/>
</svg>
