<svg width="40" height="40" viewBox="0 0 40 40" fill="none" xmlns="http://www.w3.org/2000/svg">
<path d="M20 37C29.3888 37 37 29.3888 37 20C37 10.6112 29.3888 3 20 3C10.6111 3 2.99997 10.6112 2.99997 20C2.99997 29.3888 10.6111 37 20 37Z" fill="#1B75DB"/>
<path d="M26.6175 24.9138L27.3714 20H22.6565V16.8114C22.6565 15.4669 23.315 14.1565 25.4267 14.1565H27.5702V9.97299C26.3117 9.76932 25.0399 9.65815 23.7652 9.64038C19.8818 9.64038 17.3436 11.9938 17.3436 16.2549V20H13.0271V24.9138H17.3436V36.7931C19.1038 37.069 20.8963 37.069 22.6565 36.7931V24.9138H26.6175Z" fill="white"/>
</svg>
