<svg width="40" height="40" viewBox="0 0 40 40" fill="none" xmlns="http://www.w3.org/2000/svg">
<path d="M20.2607 9.79739C22.6573 9.79592 24.9769 10.6428 26.8088 12.188L31.94 7.30165C29.9702 5.48542 27.6043 4.15328 25.0299 3.41097C22.4556 2.66865 19.7436 2.53658 17.1093 3.02525C14.4749 3.51392 11.9908 4.60987 9.85389 6.22612C7.71702 7.84237 5.98628 9.93444 4.79902 12.3363L10.5837 16.7951C11.2584 14.7607 12.556 12.9902 14.2927 11.7343C16.0295 10.4784 18.1174 9.80075 20.2607 9.79739V9.79739Z" fill="#DE350B"/>
<path d="M10.0612 19.9969C10.0627 18.9085 10.2391 17.8275 10.5838 16.7951L4.79908 12.3363C3.61582 14.7166 3.00005 17.3387 3.00005 19.9969C3.00005 22.6551 3.61582 25.2772 4.79908 27.6576L10.5838 23.1988C10.2391 22.1664 10.0627 21.0853 10.0612 19.9969V19.9969Z" fill="#FFAB00"/>
<path d="M36.8154 16.8586H20.3392V23.9199H29.6757C29.1203 25.9164 27.8478 27.6379 26.1019 28.7544L31.8419 33.1795C35.5098 29.8874 37.6651 24.5342 36.8154 16.8586Z" fill="#1B75DB"/>
<path d="M26.0996 28.7543C24.3256 29.7697 22.3033 30.2691 20.2607 30.1964C18.1174 30.193 16.0295 29.5154 14.2927 28.2595C12.556 27.0036 11.2584 25.2331 10.5837 23.1987L4.79902 27.6575C6.22785 30.5378 8.43197 32.9622 11.1635 34.6582C13.895 36.3542 17.0455 37.2544 20.2607 37.2576C24.4914 37.3725 28.6153 35.9195 31.8395 33.1778L26.0996 28.7543Z" fill="#00875A"/>
</svg>
